<svg id="icons" enable-background="new 0 0 64 64" height="512" viewBox="0 0 64 64" width="512" xmlns="http://www.w3.org/2000/svg"><path d="m54.011 27.75c-.206 0-.413-.064-.592-.195l-16.605-12.223c-.444-.328-.54-.953-.213-1.398s.953-.539 1.398-.213l16.604 12.223c.444.328.54.955.213 1.398-.195.267-.498.408-.805.408z" fill="#545c66"/><path d="m37.061 6.949.902-4.508c.007-.033-.004-.064 0-.098.003-.029.018-.057.018-.088s-.016-.059-.018-.09c-.007-.082-.022-.158-.048-.236-.015-.041-.03-.078-.049-.117-.041-.082-.09-.154-.151-.223-.021-.023-.042-.045-.065-.066-.072-.066-.151-.119-.242-.164-.027-.012-.053-.023-.081-.033-.05-.02-.093-.051-.147-.063s-.106.002-.161 0c-.013 0-.023-.008-.037-.008h-9.965c-.553 0-1 .447-1 1v3.155c-.01.268.082.539.286.742l3.957 3.959c.378.379.586.881.586 1.416 0 .533-.208 1.035-.586 1.412-.779.779-2.049.779-2.828 0l-2.633-2.631c-.264-.264-.652-.361-1.007-.246-.355.111-.619.412-.685.779-.458 2.576.37 5.217 2.215 7.061 1.56 1.561 3.608 2.34 5.657 2.34s4.098-.779 5.657-2.34c1.513-1.512 2.354-3.527 2.37-5.674.015-1.97-.678-3.822-1.945-5.279z" fill="#e6e9ed"/><path d="m9.989 27.75c-.308 0-.61-.141-.807-.408-.327-.443-.232-1.07.213-1.398l19.012-13.996c.445-.324 1.071-.232 1.398.213s.232 1.07-.213 1.398l-19.011 13.996c-.179.131-.386.195-.592.195z" fill="#656d78"/><path d="m60.998 25.746h-57.996c-.553 0-1 .447-1 1v34.998c0 .553.447 1 1 1h57.996c.553 0 1-.447 1-1v-34.998c0-.553-.447-1-1-1z" fill="#5d9cec"/><g fill="#4a89dc"><path d="m28 28.744h4v31h-4z"/><path d="m16 28.744h4v31h-4z"/><path d="m40 28.744h4v31h-4z"/><path d="m24 28.744h4v31h-4z"/><path d="m8 28.744h4v31h-4z"/><path d="m32 28.744h4v31h-4z"/><path d="m5.001 28.744h2.999v31h-2.999z"/><path d="m36 28.744h4v31h-4z"/><path d="m12 28.744h4v31h-4z"/><path d="m48 28.744h4.01v31h-4.01z"/><path d="m20 28.744h4v31h-4z"/><path d="m52.01 28.744h4v31h-4z"/><path d="m56.01 28.744h2.989v31h-2.989z"/><path d="m44 28.744h4v31h-4z"/></g><path d="m7.999 60.746c-.553 0-1-.447-1-1v-30.998c0-.553.447-1 1-1s1 .447 1 1v30.998c0 .553-.447 1-1 1z" fill="#5d9cec"/><path d="m12 60.746c-.553 0-1-.447-1-1v-30.998c0-.553.447-1 1-1s1 .447 1 1v30.998c0 .553-.447 1-1 1z" fill="#5d9cec"/><path d="m16.001 60.746c-.553 0-1-.447-1-1v-30.998c0-.553.447-1 1-1s1 .447 1 1v30.998c0 .553-.447 1-1 1z" fill="#5d9cec"/><path d="m20.002 60.746c-.553 0-1-.447-1-1v-30.998c0-.553.447-1 1-1s1 .447 1 1v30.998c0 .553-.447 1-1 1z" fill="#5d9cec"/><path d="m24.003 60.746c-.553 0-1-.447-1-1v-30.998c0-.553.447-1 1-1s1 .447 1 1v30.998c0 .553-.447 1-1 1z" fill="#5d9cec"/><path d="m28.004 60.746c-.553 0-1-.447-1-1v-30.998c0-.553.447-1 1-1s1 .447 1 1v30.998c0 .553-.447 1-1 1z" fill="#5d9cec"/><path d="m32.005 60.746c-.553 0-1-.447-1-1v-30.998c0-.553.447-1 1-1s1 .447 1 1v30.998c0 .553-.447 1-1 1z" fill="#5d9cec"/><path d="m36.006 60.746c-.553 0-1-.447-1-1v-30.998c0-.553.447-1 1-1s1 .447 1 1v30.998c0 .553-.447 1-1 1z" fill="#5d9cec"/><path d="m40.007 60.746c-.553 0-1-.447-1-1v-30.998c0-.553.447-1 1-1s1 .447 1 1v30.998c0 .553-.447 1-1 1z" fill="#5d9cec"/><path d="m44.008 60.746c-.553 0-1-.447-1-1v-30.998c0-.553.447-1 1-1s1 .447 1 1v30.998c0 .553-.447 1-1 1z" fill="#5d9cec"/><path d="m48.009 60.746c-.553 0-1-.447-1-1v-30.998c0-.553.447-1 1-1s1 .447 1 1v30.998c0 .553-.447 1-1 1z" fill="#5d9cec"/><path d="m52.01 60.746c-.553 0-1-.447-1-1v-30.998c0-.553.447-1 1-1s1 .447 1 1v30.998c0 .553-.447 1-1 1z" fill="#5d9cec"/><path d="m56.011 60.746c-.553 0-1-.447-1-1v-30.998c0-.553.447-1 1-1s1 .447 1 1v30.998c0 .553-.448 1-1 1z" fill="#5d9cec"/></svg>