<svg id="icons" enable-background="new 0 0 64 64" height="512" viewBox="0 0 64 64" width="512" xmlns="http://www.w3.org/2000/svg"><path d="m63.763 15.626c.021-.025.046-.046.064-.074.013-.019.014-.04.024-.06.046-.079.079-.16.102-.247.011-.043.02-.083.024-.127.01-.08.009-.156-.001-.236-.006-.053-.016-.102-.029-.151-.02-.067-.046-.129-.079-.192-.03-.058-.065-.11-.107-.162-.021-.025-.03-.057-.054-.08s-.055-.032-.079-.053c-.028-.024-.046-.057-.078-.078l-21-13.999c-.031-.021-.067-.024-.1-.041-.054-.027-.105-.049-.161-.065-.074-.023-.146-.038-.223-.044-.046-.003-.09-.002-.137.001-.085.006-.166.021-.247.048-.038.013-.073.027-.109.045-.083.039-.156.089-.228.151-.017.015-.037.02-.053.035l-9.295 9.295-9.294-9.295c-.016-.016-.036-.021-.053-.035-.071-.063-.145-.112-.228-.151-.037-.018-.071-.032-.109-.045-.081-.027-.162-.042-.247-.048-.047-.003-.091-.004-.137-.001-.076.006-.148.021-.223.044-.056.017-.107.038-.161.065-.032.017-.068.021-.1.041l-21 13.999c-.032.021-.049.054-.078.078-.025.021-.056.029-.079.053s-.032.055-.054.08c-.042.052-.077.104-.107.162-.033.063-.06.125-.079.192-.014.05-.023.099-.029.151-.01.08-.011.156-.001.236.005.044.014.084.024.127.022.087.056.168.102.247.011.02.012.041.024.06.019.028.044.049.064.074.021.026.031.06.056.084l9.298 9.298-9.295 9.294c-.033.033-.048.077-.075.113-.014.018-.033.026-.045.045-.013.019-.014.04-.024.06-.046.079-.079.16-.102.247-.011.043-.02.083-.024.127-.01.08-.009.156.001.236.006.053.016.102.029.151.02.067.046.129.079.192.03.058.065.11.107.162.021.025.03.057.054.08s.055.032.079.053c.028.024.046.057.078.078l9.546 6.363v6.793c0 .033.016.061.019.093.007.069.02.135.041.201.019.061.041.116.07.172.029.055.063.104.104.154.043.054.09.102.145.146.024.02.039.048.066.066l21 13.999c.034.022.072.033.108.051.033.018.064.034.1.047.112.042.229.07.347.07s.234-.028.347-.07c.035-.013.066-.029.1-.047.036-.018.074-.028.108-.051l21-13.999c.027-.019.042-.047.066-.066.055-.044.102-.092.145-.146.041-.05.075-.1.104-.154.029-.056.052-.111.07-.172.021-.067.034-.132.041-.201.003-.032.019-.06.019-.093v-6.785l9.557-6.371c.032-.021.049-.054.078-.078.025-.021.056-.029.079-.053s.032-.055.054-.08c.042-.052.077-.104.107-.162.033-.063.06-.125.079-.192.014-.05.023-.099.029-.151.01-.08.011-.156.001-.236-.005-.044-.014-.084-.024-.127-.022-.087-.056-.168-.102-.247-.011-.02-.012-.041-.024-.06s-.031-.027-.045-.044c-.027-.037-.042-.081-.075-.114l-9.298-9.298 9.295-9.294c.026-.024.036-.058.058-.084zm-30.767-2.749 18.197 12.13-3.092 2.062c-.116-.116-.241-.228-.387-.325-.517-.346-1.155-.53-1.802-.553-.128-.505-.462-.958-.956-1.283-.517-.346-1.154-.529-1.801-.552-.127-.506-.462-.963-.963-1.296-.513-.339-1.149-.519-1.793-.541-.127-.505-.461-.963-.963-1.299-.513-.339-1.148-.52-1.792-.542-.128-.502-.462-.957-.959-1.29-.515-.345-1.153-.528-1.801-.551-.128-.5-.459-.95-.951-1.279-.282-.189-.602-.329-.938-.422v-4.259zm-30.431 2.28 19.304-12.868 8.561 8.562-19.304 12.867zm28.431-2.28v4.259c-.335.093-.653.231-.934.42-.494.33-.826.782-.954 1.281-.646.022-1.286.207-1.804.555-.495.332-.828.786-.956 1.286-.646.022-1.284.205-1.8.548-.497.334-.83.79-.957 1.294-.645.022-1.281.203-1.797.543-.498.332-.833.789-.959 1.295-.646.021-1.283.204-1.796.547-.499.329-.834.784-.961 1.289-.646.022-1.284.206-1.8.551-.146.097-.272.207-.389.323l-3.092-2.061zm-28.428 21.977 8.559-8.559 19.303 12.869-8.558 8.559zm28.428 26.279-19-12.665v-4.925l9.454 6.303c.041.027.087.041.131.062.024.012.048.024.073.034.114.043.231.072.35.072.127 0 .25-.03.367-.077l.009-.003c.128-.052.244-.13.344-.234l8.272-8.273zm1-23.329-14.294-9.528c.433-.132.998-.094 1.333.13.46.305 1.079.183 1.385-.274.308-.457.187-1.077-.27-1.386-.062-.042-.098-.078-.117-.08.019-.022.054-.056.112-.095.422-.28 1.223-.282 1.646 0 .46.308 1.079.183 1.385-.275.308-.457.187-1.077-.271-1.386-.064-.043-.101-.081-.119-.081.019-.022.053-.059.112-.099.426-.279 1.228-.28 1.653.001.464.305 1.081.175 1.385-.285s.177-1.08-.283-1.385c-.056-.037-.09-.07-.108-.072.019-.023.055-.06.114-.1.422-.28 1.221-.281 1.646-.001.001.001.001.001.002.001.461.305 1.081.177 1.385-.284s.177-1.081-.283-1.385c-.053-.035-.086-.065-.105-.07.021-.023.057-.059.115-.098.422-.284 1.219-.286 1.637-.003.458.308 1.078.187 1.388-.271.309-.457.188-1.078-.269-1.388-.058-.039-.094-.074-.113-.077.02-.023.056-.057.113-.096.422-.283 1.22-.284 1.646.001.055.037.09.07.109.074-.019.021-.051.05-.1.083-.457.307-.581.925-.276 1.384s.923.586 1.382.283c.422-.277 1.219-.273 1.637.007.06.039.096.074.116.078-.02.022-.055.055-.109.09-.292.192-.45.512-.45.837 0 .188.053.379.164.549.305.462.923.59 1.386.286.427-.281 1.232-.28 1.649-.005.063.042.1.079.118.08-.019.022-.053.056-.111.094-.292.192-.45.512-.45.837 0 .188.053.379.164.549.305.462.924.591 1.386.286.427-.283 1.232-.281 1.653-.003.062.04.097.076.115.077-.019.023-.056.061-.119.104-.287.192-.442.509-.442.831 0 .191.055.386.17.557.307.457.929.581 1.388.272.422-.281 1.222-.282 1.651.005.055.036.088.068.106.071-.019.023-.056.06-.116.101-.286.193-.44.508-.44.829 0 .192.055.388.171.56.31.457.929.576 1.389.27.333-.225.898-.263 1.331-.13zm20 10.664-19 12.665v-19.718l8.283 8.284c.1.104.216.183.344.234l.009.003c.117.046.241.077.367.077.118 0 .235-.029.35-.072.025-.01.049-.022.073-.034.044-.021.09-.034.131-.062l9.443-6.295zm9.439-13.614-19.304 12.869-8.563-8.563 19.304-12.867zm-8.566-11.134-19.304-12.867 8.563-8.563 19.304 12.868z"/></svg>