<?xml version="1.0"?>
<svg xmlns="http://www.w3.org/2000/svg" viewBox="0 0 64 64" width="512" height="512"><g id="Receipt"><polygon points="45 61 3 61 3 3 35 3 45 13 45 61" style="fill:#fff2e1"/><path d="M45,31V61H15A29.985,29.985,0,0,0,45,31Z" style="fill:#ffedd5"/><polygon points="13 19 9 17 9 27 17 31.14 17 21 13 19" style="fill:#8b5e3c"/><polygon points="17 21 17 31.14 25 27.1 25 17 17 21" style="fill:#c49a6c"/><polygon points="17 13 9 17 13 19 17 21 25 17 17 13" style="fill:#a97c50"/><polygon points="45 13 35 3 35 13 45 13" style="fill:#ffb655"/><circle cx="52" cy="43" r="10" style="fill:#a9e47f"/><path d="M39,18H35a1,1,0,0,0,0,2h4a1,1,0,0,0,0-2Z" style="fill:#ffdaaa"/><path d="M39,22H31a1,1,0,0,0,0,2h8a1,1,0,0,0,0-2Z" style="fill:#ffdaaa"/><path d="M39,26H31a1,1,0,0,0,0,2h8a1,1,0,0,0,0-2Z" style="fill:#ffdaaa"/><path d="M31,20h1a1,1,0,0,0,0-2H31a1,1,0,0,0,0,2Z" style="fill:#ffdaaa"/><path d="M39,53H29a1,1,0,0,0,0,2H39a1,1,0,0,0,0-2Z" style="fill:#ffdaaa"/><path d="M39,56H33a1,1,0,0,0,0,2h6a1,1,0,0,0,0-2Z" style="fill:#ffdaaa"/><path d="M52,40c1.221,0,2,.592,2,1h2c0-1.421-1.259-2.572-3-2.9V36H51v2.1c-1.741.326-3,1.477-3,2.9,0,1.683,1.757,3,4,3,1.221,0,2,.592,2,1s-.779,1-2,1-2-.592-2-1H48c0,1.421,1.259,2.572,3,2.9V50h2V47.9c1.741-.326,3-1.477,3-2.9,0-1.683-1.757-3-4-3-1.221,0-2-.592-2-1S50.779,40,52,40Z" style="fill:#4e901e"/><path d="M11,37H9a1,1,0,0,0,0,2h2a1,1,0,0,0,0-2Z" style="fill:#ffdaaa"/><path d="M35,37H15a1,1,0,0,0,0,2H35a1,1,0,0,0,0-2Z" style="fill:#ffdaaa"/><path d="M11,41H9a1,1,0,0,0,0,2h2a1,1,0,0,0,0-2Z" style="fill:#ffdaaa"/><path d="M35,41H15a1,1,0,0,0,0,2H35a1,1,0,0,0,0-2Z" style="fill:#ffdaaa"/><path d="M11,45H9a1,1,0,0,0,0,2h2a1,1,0,0,0,0-2Z" style="fill:#ffdaaa"/><path d="M15,47H35a1,1,0,0,0,0-2H15a1,1,0,0,0,0,2Z" style="fill:#ffdaaa"/><polygon points="12 18.5 12 22 14 23 14 19.5 17.6 17.8 15.423 16.711 12 18.5" style="fill:#ffaf46"/></g></svg>
